<?xml version="1.0" encoding="utf-8"?>
<!-- Generator: Adobe Illustrator 16.0.0, SVG Export Plug-In . SVG Version: 6.00 Build 0)  -->
<!DOCTYPE svg PUBLIC "-//W3C//DTD SVG 1.1//EN" "http://www.w3.org/Graphics/SVG/1.1/DTD/svg11.dtd">
<svg version="1.1" id="Layer_1" xmlns="http://www.w3.org/2000/svg" xmlns:xlink="http://www.w3.org/1999/xlink" x="0px" y="0px"
	 width="1000px" height="1000px" viewBox="0 0 1000 1000" enable-background="new 0 0 1000 1000" xml:space="preserve">
<g>
	<path fill="#CB97CB" d="M765.655,728c-9.54,0-14.655-3.494-14.655-13.039V390h-2.377l-69.516,229.832
		c-2.724,9.092-8.41,15.168-17.032,15.168h-57.248c-8.633,0-14.309-5.735-17.032-14.827L516.921,390H516v324.961
		c0,5.452-1.818,8.563-3.631,10.609c-1.816,2.041-6.587,2.43-12.486,2.43h-55.88c-9.54,0-15.002-3.494-15.002-13.039V305.396
		c0-9.54,5.463-14.396,15.002-14.396h101.542c6.352,0,10.669,3.632,12.944,9.99L630.728,542h4.088l72.921-241.01
		c1.359-6.358,5.67-9.99,12.945-9.99H767v-80.958L9,278.989v593.853l758,97.867V728H765.655z"/>
	<path fill="#A852A9" d="M113,98.832v593.853l764,97.867V29.887L113,98.832z M838,714.961c0,9.545-6.922,13.039-16.462,13.039
		h-55.883c-9.54,0-14.655-3.494-14.655-13.039V390h-2.377l-69.516,229.832c-2.724,9.092-8.41,15.168-17.032,15.168h-57.248
		c-8.633,0-14.309-5.735-17.032-14.827L516.921,390H516v324.961c0,5.452-1.818,8.563-3.631,10.609
		c-1.816,2.041-6.587,2.43-12.486,2.43h-55.88c-9.54,0-15.002-3.494-15.002-13.039V305.396c0-9.54,5.463-14.396,15.002-14.396
		h101.542c6.352,0,10.669,3.632,12.944,9.99L630.728,542h4.088l72.921-241.01c1.359-6.358,5.67-9.99,12.945-9.99h100.856
		c9.54,0,16.462,4.856,16.462,14.396V714.961z"/>
	<path fill="#922793" d="M227,212.267v593.853l764,97.867V143.318L227,212.267z M838,714.961c0,9.545-6.922,13.039-16.462,13.039
		h-55.883c-9.54,0-14.655-3.494-14.655-13.039V390h-2.377l-69.516,229.832c-2.724,9.092-8.41,15.168-17.032,15.168h-57.248
		c-8.633,0-14.309-5.735-17.032-14.827L516.921,390H516v324.961c0,5.452-1.818,8.563-3.631,10.609
		c-1.816,2.041-6.587,2.43-12.486,2.43h-55.88c-9.54,0-15.002-3.494-15.002-13.039V305.396c0-9.54,5.463-14.396,15.002-14.396
		h101.542c6.352,0,10.669,3.632,12.944,9.99L630.728,542h4.088l72.921-241.01c1.359-6.358,5.67-9.99,12.945-9.99h100.856
		c9.54,0,16.462,4.856,16.462,14.396V714.961z"/>
</g>
</svg>
