<?xml version="1.0" encoding="utf-8"?>
<!-- Generator: Adobe Illustrator 16.0.0, SVG Export Plug-In . SVG Version: 6.00 Build 0)  -->
<!DOCTYPE svg PUBLIC "-//W3C//DTD SVG 1.1//EN" "http://www.w3.org/Graphics/SVG/1.1/DTD/svg11.dtd">
<svg version="1.1" id="Layer_1" xmlns="http://www.w3.org/2000/svg" xmlns:xlink="http://www.w3.org/1999/xlink" x="0px" y="0px"
	 width="1000px" height="1000px" viewBox="0 0 1000 1000" enable-background="new 0 0 1000 1000" xml:space="preserve">
<g>
	<polygon points="189,177.359 877,115.305 877,29.887 113,98.832 113,692.685 189,702.469 	"/>
	<polygon points="189,740.984 74,726.302 74,273.039 9,278.987 9,872.842 767,970.709 767,913.84 189,839.736 	"/>
	<path d="M227,212.267v593.853l764,97.867V143.318L227,212.267z M838,728.434c0,9.545-6.922,15.566-16.462,15.566h-55.883
		c-9.54,0-14.655-6.021-14.655-15.566V406h-2.377l-69.516,227.332c-2.724,9.092-8.41,12.668-17.032,12.668h-57.248
		c-8.633,0-14.309-3.234-17.032-12.326L516.921,406H516v322.434c0,5.451-1.818,9.832-3.631,11.873
		c-1.816,2.041-6.587,3.693-12.486,3.693h-55.88c-9.54,0-15.002-6.021-15.002-15.566V318.871c0-9.539,5.463-16.871,15.002-16.871
		h101.542c6.352,0,10.669,3.629,12.944,9.987L630.728,553h4.088l72.921-241.013c1.359-6.358,5.67-9.987,12.945-9.987h100.856
		c9.54,0,16.462,7.332,16.462,16.871V728.434z"/>
</g>
</svg>
