<?xml version="1.0" encoding="utf-8"?>
<!-- Generator: Adobe Illustrator 16.0.0, SVG Export Plug-In . SVG Version: 6.00 Build 0)  -->
<!DOCTYPE svg PUBLIC "-//W3C//DTD SVG 1.1//EN" "http://www.w3.org/Graphics/SVG/1.1/DTD/svg11.dtd">
<svg version="1.1" id="Layer_1" xmlns="http://www.w3.org/2000/svg" xmlns:xlink="http://www.w3.org/1999/xlink" x="0px" y="0px"
	 width="1000px" height="1000px" viewBox="0 0 1000 1000" enable-background="new 0 0 1000 1000" xml:space="preserve">
<g>
	<path fill="#CB97CB" d="M269.368,579c-3.269,0-5.368-1.863-5.368-5.134V463h-0.471l-23.822,78.285
		c-0.934,3.116-2.882,4.715-5.838,4.715H214.25c-2.96,0-4.905-1.482-5.839-4.598L184.122,463H183v110.866
		c0,1.868-0.22,3.27-0.84,3.969c-0.624,0.699-1.855,1.165-3.877,1.165h-19.151c-3.27,0-5.132-1.863-5.132-5.134V433.502
		c0-3.269,1.863-4.502,5.132-4.502h34.799c2.179,0,3.656,0.734,4.437,2.913L223.125,514h1.402l24.99-82.087
		c0.466-2.179,1.945-2.913,4.437-2.913H270v-28.177L10,424.453v203.521l260,33.541V579H269.368z"/>
	<path fill="#922793" d="M480.964,578.77h-76.371c-3.27,0-4.905-1.633-4.905-4.903V433.502c0-3.269,1.635-4.904,4.905-4.904h76.371
		c3.113,0,4.671,1.635,4.671,4.904v15.882c0,3.269-1.558,4.905-4.671,4.905h-48.812c-1.869,0-2.803,0.857-2.803,2.569v30.362
		c0,1.715,0.934,2.569,2.803,2.569h39.938c3.269,0,4.904,1.634,4.904,4.905v15.882c0,3.269-1.635,4.903-4.904,4.903h-39.938
		c-1.869,0-2.803,0.857-2.803,2.57v32.463c0,1.715,0.934,2.567,2.803,2.567h48.812c3.113,0,4.671,1.637,4.671,4.906v15.881
		C485.635,577.137,484.077,578.77,480.964,578.77z"/>
	<path fill="#922793" d="M640.007,578.77h-76.838c-3.269,0-4.903-1.633-4.903-4.903V433.502c0-3.269,1.635-4.904,4.903-4.904h19.854
		c3.27,0,4.904,1.635,4.904,4.904v116.775c0,1.716,0.933,2.568,2.804,2.568h49.276c3.114,0,4.672,1.717,4.672,5.14v15.881
		C644.679,577.137,643.121,578.77,640.007,578.77z"/>
	<path fill="#922793" d="M734.594,578.77h-19.852c-3.269,0-4.903-1.633-4.903-4.903V433.502c0-3.269,1.635-4.904,4.903-4.904h56.986
		c12.145,0,21.563,3.31,28.261,9.926c6.692,6.62,10.042,15.998,10.042,28.143v22.421c0,12.144-3.35,21.527-10.042,28.143
		c-6.697,6.619-16.116,9.925-28.261,9.925h-29.427c-1.869,0-2.802,0.858-2.802,2.569v44.142
		C739.5,577.137,737.863,578.77,734.594,578.77z M742.067,501.231h24.758c4.98,0,8.483-1.05,10.509-3.152
		c2.022-2.103,3.036-5.565,3.036-10.394v-19.618c0-4.981-1.014-8.524-3.036-10.627c-2.025-2.102-5.528-3.152-10.509-3.152h-24.758
		c-1.715,0-2.567,0.857-2.567,2.569v41.805C739.5,500.378,740.353,501.231,742.067,501.231z"/>
	<path fill="#922793" d="M895.977,578.77h-22.421c-2.802,0-3.736-1.633-2.802-4.903l36.901-140.364
		c1.087-3.269,3.423-4.904,7.006-4.904h31.063c3.89,0,6.226,1.635,7.006,4.904l36.901,140.364c0.935,3.271,0,4.903-2.802,4.903
		h-22.422c-1.715,0-2.882-0.351-3.503-1.05c-0.624-0.699-1.092-1.985-1.4-3.854l-6.541-25.69h-45.542l-6.538,25.69
		c-0.314,1.868-0.818,3.154-1.52,3.854C898.664,578.419,897.531,578.77,895.977,578.77z M929.843,456.858l-16.816,67.496h34.565
		l-16.816-67.496H929.843z"/>
	<path fill="#A852A9" d="M46,362.71v203.521l261,33.541v-260.69L46,362.71z M293,573.866c0,3.271-1.211,5.134-4.481,5.134h-19.151
		c-3.269,0-5.368-1.863-5.368-5.134V463h-0.471l-23.822,78.285c-0.934,3.116-2.882,4.715-5.838,4.715H214.25
		c-2.96,0-4.905-1.482-5.839-4.598L184.122,463H183v110.866c0,1.868-0.22,3.27-0.84,3.969c-0.624,0.699-1.855,1.165-3.877,1.165
		h-19.151c-3.27,0-5.132-1.863-5.132-5.134V433.502c0-3.269,1.863-4.502,5.132-4.502h34.799c2.179,0,3.656,0.734,4.437,2.913
		L223.125,514h1.402l24.99-82.087c0.466-2.179,1.945-2.913,4.437-2.913h34.565c3.27,0,4.481,1.233,4.481,4.502V573.866z"/>
	<path fill="#922793" d="M85,401.586v203.521l262,33.54V377.957L85,401.586z M293,573.866c0,3.271-1.211,5.134-4.481,5.134h-19.151
		c-3.269,0-5.368-1.863-5.368-5.134V463h-0.471l-23.822,78.285c-0.934,3.116-2.882,4.715-5.838,4.715H214.25
		c-2.96,0-4.905-1.482-5.839-4.598L184.122,463H183v110.866c0,1.868-0.22,3.27-0.84,3.969c-0.624,0.699-1.855,1.165-3.877,1.165
		h-19.151c-3.27,0-5.132-1.863-5.132-5.134V433.502c0-3.269,1.863-4.502,5.132-4.502h34.799c2.179,0,3.656,0.734,4.437,2.913
		L223.125,514h1.402l24.99-82.087c0.466-2.179,1.945-2.913,4.437-2.913h34.565c3.27,0,4.481,1.233,4.481,4.502V573.866z"/>
</g>
</svg>
