<?xml version="1.0" encoding="utf-8"?>
<!-- Generator: Adobe Illustrator 16.0.0, SVG Export Plug-In . SVG Version: 6.00 Build 0)  -->
<!DOCTYPE svg PUBLIC "-//W3C//DTD SVG 1.1//EN" "http://www.w3.org/Graphics/SVG/1.1/DTD/svg11.dtd">
<svg version="1.1" id="Layer_1" xmlns="http://www.w3.org/2000/svg" xmlns:xlink="http://www.w3.org/1999/xlink" x="0px" y="0px"
	 width="1000px" height="1000px" viewBox="0 0 1000 1000" enable-background="new 0 0 1000 1000" xml:space="preserve">
<polygon points="72,386.853 308,365.63 308,336.417 46,359.996 46,563.094 72,566.441 "/>
<polygon points="72,579.612 34,574.592 34,419.574 11,421.61 11,624.708 271,658.18 271,638.73 72,613.386 "/>
<path d="M481.003,580.215H404.79c-3.263,0-4.894-1.63-4.894-4.895V435.249c0-3.263,1.631-4.894,4.894-4.894h76.213
	c3.107,0,4.66,1.631,4.66,4.894v15.849c0,3.263-1.553,4.895-4.66,4.895h-48.71c-1.866,0-2.797,0.855-2.797,2.563v30.297
	c0,1.713,0.931,2.565,2.797,2.565h39.854c3.262,0,4.894,1.631,4.894,4.894v15.85c0,3.263-1.632,4.895-4.894,4.895h-39.854
	c-1.866,0-2.797,0.854-2.797,2.564v32.395c0,1.711,0.931,2.563,2.797,2.563h48.71c3.107,0,4.66,1.633,4.66,4.896v15.848
	C485.664,578.585,484.11,580.215,481.003,580.215z"/>
<path d="M639.716,580.215h-76.678c-3.263,0-4.894-1.63-4.894-4.895V435.249c0-3.263,1.631-4.894,4.894-4.894h19.812
	c3.263,0,4.895,1.631,4.895,4.894v116.532c0,1.711,0.931,2.563,2.797,2.563h49.175c3.107,0,4.663,1.713,4.663,5.129v15.848
	C644.379,578.585,642.823,580.215,639.716,580.215z"/>
<path d="M734.106,580.215h-19.811c-3.263,0-4.894-1.63-4.894-4.895V435.249c0-3.263,1.631-4.894,4.894-4.894h56.868
	c12.119,0,21.518,3.302,28.201,9.905c6.679,6.606,10.021,15.964,10.021,28.084v22.375c0,12.117-3.343,21.482-10.021,28.083
	c-6.684,6.605-16.082,9.904-28.201,9.904h-29.366c-1.864,0-2.796,0.857-2.796,2.563v44.05
	C739.002,578.585,737.368,580.215,734.106,580.215z M741.564,502.836h24.706c4.97,0,8.466-1.046,10.487-3.146
	c2.017-2.096,3.028-5.551,3.028-10.37v-19.577c0-4.971-1.012-8.507-3.028-10.605c-2.021-2.098-5.518-3.146-10.487-3.146h-24.706
	c-1.712,0-2.563,0.855-2.563,2.563v41.718C739.002,501.985,739.853,502.836,741.564,502.836z"/>
<path d="M895.153,580.215h-22.374c-2.796,0-3.729-1.63-2.796-4.895l36.823-140.071c1.085-3.263,3.416-4.894,6.992-4.894h30.997
	c3.883,0,6.214,1.631,6.992,4.894l36.825,140.071c0.933,3.265,0,4.895-2.797,4.895h-22.375c-1.711,0-2.876-0.351-3.495-1.048
	c-0.623-0.699-1.09-1.981-1.398-3.847l-6.526-25.637h-45.447l-6.524,25.637c-0.314,1.865-0.817,3.147-1.517,3.847
	C897.835,579.864,896.705,580.215,895.153,580.215z M928.949,458.556l-16.781,67.355h34.493l-16.781-67.355H928.949z"/>
<path d="M481.003,580.215H404.79c-3.263,0-4.894-1.63-4.894-4.895V435.249c0-3.263,1.631-4.894,4.894-4.894h76.213
	c3.107,0,4.66,1.631,4.66,4.894v15.849c0,3.263-1.553,4.895-4.66,4.895h-48.71c-1.866,0-2.797,0.855-2.797,2.563v30.297
	c0,1.713,0.931,2.565,2.797,2.565h39.854c3.262,0,4.894,1.631,4.894,4.894v15.85c0,3.263-1.632,4.895-4.894,4.895h-39.854
	c-1.866,0-2.797,0.854-2.797,2.564v32.395c0,1.711,0.931,2.563,2.797,2.563h48.71c3.107,0,4.66,1.633,4.66,4.896v15.848
	C485.664,578.585,484.11,580.215,481.003,580.215z"/>
<path d="M639.716,580.215h-76.678c-3.263,0-4.894-1.63-4.894-4.895V435.249c0-3.263,1.631-4.894,4.894-4.894h19.812
	c3.263,0,4.895,1.631,4.895,4.894v116.532c0,1.711,0.931,2.563,2.797,2.563h49.175c3.107,0,4.663,1.713,4.663,5.129v15.848
	C644.379,578.585,642.823,580.215,639.716,580.215z"/>
<path d="M734.106,580.215h-19.811c-3.263,0-4.894-1.63-4.894-4.895V435.249c0-3.263,1.631-4.894,4.894-4.894h56.868
	c12.119,0,21.518,3.302,28.201,9.905c6.679,6.606,10.021,15.964,10.021,28.084v22.375c0,12.117-3.343,21.482-10.021,28.083
	c-6.684,6.605-16.082,9.904-28.201,9.904h-29.366c-1.864,0-2.796,0.857-2.796,2.563v44.05
	C739.002,578.585,737.368,580.215,734.106,580.215z M741.564,502.836h24.706c4.97,0,8.466-1.046,10.487-3.146
	c2.017-2.096,3.028-5.551,3.028-10.37v-19.577c0-4.971-1.012-8.507-3.028-10.605c-2.021-2.098-5.518-3.146-10.487-3.146h-24.706
	c-1.712,0-2.563,0.855-2.563,2.563v41.718C739.002,501.985,739.853,502.836,741.564,502.836z"/>
<path d="M895.153,580.215h-22.374c-2.796,0-3.729-1.63-2.796-4.895l36.823-140.071c1.085-3.263,3.416-4.894,6.992-4.894h30.997
	c3.883,0,6.214,1.631,6.992,4.894l36.825,140.071c0.933,3.265,0,4.895-2.797,4.895h-22.375c-1.711,0-2.876-0.351-3.495-1.048
	c-0.623-0.699-1.09-1.981-1.398-3.847l-6.526-25.637h-45.447l-6.524,25.637c-0.314,1.865-0.817,3.147-1.517,3.847
	C897.835,579.864,896.705,580.215,895.153,580.215z M928.949,458.556l-16.781,67.355h34.493l-16.781-67.355H928.949z"/>
<path d="M86,398.791v203.098l261,33.472V375.21L86,398.791z M295,575.32c0,3.265-2.778,5.68-6.042,5.68h-19.111
	c-3.262,0-4.847-2.415-4.847-5.68V465h-0.979l-23.772,77.709c-0.932,3.109-2.876,4.291-5.826,4.291h-19.578
	c-2.954,0-4.895-1.066-5.826-4.176L184.779,465H185v110.32c0,1.865-0.89,3.541-1.51,4.238c-0.621,0.699-2.521,1.441-4.539,1.441
	h-19.111c-3.262,0-4.841-2.415-4.841-5.68V435.249c0-3.263,1.579-6.249,4.841-6.249h34.726c2.175,0,3.65,1.319,4.429,3.494
	L223.7,515h1.399l24.938-82.506c0.466-2.175,1.941-3.494,4.428-3.494h34.493c3.263,0,6.042,2.986,6.042,6.249V575.32z"/>
</svg>
