<?xml version="1.0" encoding="utf-8"?>
<!-- Generator: Adobe Illustrator 16.0.0, SVG Export Plug-In . SVG Version: 6.00 Build 0)  -->
<!DOCTYPE svg PUBLIC "-//W3C//DTD SVG 1.1//EN" "http://www.w3.org/Graphics/SVG/1.1/DTD/svg11.dtd">
<svg version="1.1" id="Layer_1" xmlns="http://www.w3.org/2000/svg" xmlns:xlink="http://www.w3.org/1999/xlink" x="0px" y="0px"
	 width="1000px" height="1000px" viewBox="0 0 1000 1000" enable-background="new 0 0 1000 1000" xml:space="preserve">
<path fill="#FFFFFF" d="M144.045,817.644h40.522c3.833,0,5.75,1.917,5.75,5.746v164.546c0,3.834-1.917,5.75-5.75,5.75H162.12
	c-3.839,0-5.756-1.916-5.756-5.75V858.16h-1.093l-27.928,91.721c-1.099,3.655-3.381,5.476-6.844,5.476H97.504
	c-3.467,0-5.75-1.82-6.844-5.476l-28.477-91.995h-1.099v130.05c0,2.192-0.366,3.699-1.093,4.518
	c-0.737,0.824-2.289,1.232-4.652,1.232H32.883c-3.828,0-5.745-1.916-5.745-5.75V823.39c0-3.829,1.917-5.746,5.745-5.746h40.796
	c2.557,0,4.292,1.276,5.207,3.828l29.021,96.652h1.643l29.295-96.652C139.394,818.92,141.122,817.644,144.045,817.644z"/>
<path fill="#FFFFFF" d="M375.944,993.686h-89.535c-3.828,0-5.745-1.916-5.745-5.75V823.39c0-3.829,1.917-5.746,5.745-5.746h89.535
	c3.651,0,5.481,1.917,5.481,5.746v18.618c0,3.827-1.83,5.75-5.481,5.75h-57.218c-2.197,0-3.291,1.007-3.291,3.01v35.596
	c0,2.009,1.094,3.01,3.291,3.01h46.81c3.833,0,5.75,1.916,5.75,5.75v18.617c0,3.834-1.917,5.752-5.75,5.752h-46.81
	c-2.197,0-3.291,1.001-3.291,3.01v38.06c0,2.009,1.094,3.006,3.291,3.006h57.218c3.651,0,5.481,1.916,5.481,5.75v18.618
	C381.425,991.77,379.595,993.686,375.944,993.686z"/>
<path fill="#FFFFFF" d="M562.394,993.686h-90.077c-3.829,0-5.746-1.916-5.746-5.75V823.39c0-3.829,1.917-5.746,5.746-5.746h23.281
	c3.829,0,5.74,1.917,5.74,5.746v136.893c0,2.015,1.098,3.016,3.29,3.016h57.767c3.646,0,5.477,2.014,5.477,6.02v18.618
	C567.87,991.77,566.039,993.686,562.394,993.686z"/>
<path fill="#FFFFFF" d="M673.276,993.686h-23.271c-3.834,0-5.75-1.916-5.75-5.75V823.39c0-3.829,1.916-5.746,5.75-5.746h66.803
	c14.235,0,25.284,3.877,33.129,11.629c7.844,7.766,11.775,18.76,11.775,32.996v26.285c0,14.236-3.932,25.23-11.775,32.989
	c-7.845,7.759-18.894,11.635-33.129,11.635h-34.498c-2.19,0-3.289,1.008-3.289,3.016v51.742
	C679.021,991.77,677.11,993.686,673.276,993.686z M682.037,902.79h29.026c5.836,0,9.944-1.229,12.318-3.693
	c2.369-2.467,3.56-6.525,3.56-12.19V863.91c0-5.836-1.19-9.987-3.56-12.454c-2.374-2.465-6.482-3.698-12.318-3.698h-29.026
	c-2.014,0-3.016,1.007-3.016,3.01v49.007C679.021,901.789,680.023,902.79,682.037,902.79z"/>
<path fill="#FFFFFF" d="M862.463,993.686h-26.28c-3.284,0-4.378-1.916-3.284-5.75L876.16,823.39c1.275-3.829,4.006-5.746,8.21-5.746
	h36.408c4.561,0,7.308,1.917,8.217,5.746l43.257,164.546c1.099,3.834,0,5.75-3.284,5.75h-26.28c-2.009,0-3.382-0.408-4.104-1.232
	c-0.738-0.818-1.286-2.325-1.653-4.518l-7.655-30.114H875.88l-7.662,30.114c-0.366,2.192-0.959,3.699-1.781,4.518
	C865.612,993.277,864.288,993.686,862.463,993.686z M902.166,850.768l-19.712,79.127h40.517l-19.706-79.127H902.166z"/>
<g>
	<polygon fill="#FFFFFF" points="267,117.084 785,70.278 785,5.848 208,57.852 208,505.786 267,513.167 	"/>
	<polygon fill="#FFFFFF" points="267,542.218 180,531.145 180,189.252 130,193.742 130,641.676 703,715.496 703,672.6 267,616.704 	
		"/>
	<path fill="#FFFFFF" d="M295,143.414v447.935l577,73.818V91.408L295,143.414z M755,532.752c0,7.198-4.334,12.248-11.531,12.248
		h-42.15c-7.195,0-11.318-5.05-11.318-12.248V290h-1.533l-52.43,171.459c-2.057,6.858-6.344,9.541-12.85,9.541h-43.18
		c-6.513,0-10.794-2.426-12.85-9.283L513.699,290H512v242.752c0,4.111-0.869,7.669-2.234,9.208c-1.371,1.541-4.468,3.04-8.917,3.04
		h-42.151c-7.194,0-11.698-5.05-11.698-12.248v-308.93c0-7.195,4.504-12.822,11.698-12.822h76.589c4.796,0,8.05,2.576,9.768,7.371
		L599.541,400h3.085l55.001-181.629c1.027-4.795,4.282-7.371,9.767-7.371h76.075c7.197,0,11.531,5.627,11.531,12.822V532.752z"/>
</g>
</svg>
