<?xml version="1.0" encoding="UTF-8" standalone="no"?>
<!-- Generator: Adobe Illustrator 16.0.0, SVG Export Plug-In . SVG Version: 6.00 Build 0)  -->

<svg
   xmlns:dc="http://purl.org/dc/elements/1.1/"
   xmlns:cc="http://creativecommons.org/ns#"
   xmlns:rdf="http://www.w3.org/1999/02/22-rdf-syntax-ns#"
   xmlns:svg="http://www.w3.org/2000/svg"
   xmlns="http://www.w3.org/2000/svg"
   xmlns:sodipodi="http://sodipodi.sourceforge.net/DTD/sodipodi-0.dtd"
   xmlns:inkscape="http://www.inkscape.org/namespaces/inkscape"
   version="1.1"
   id="Layer_1"
   x="0px"
   y="0px"
   width="999.98169"
   height="342.43301"
   viewBox="0 0 999.9817 342.43301"
   enable-background="new 0 0 1000 1000"
   xml:space="preserve"
   sodipodi:docname="logo.svg"
   inkscape:version="0.92.2 5c3e80d, 2017-08-06"><metadata
     id="metadata23"><rdf:RDF><cc:Work
         rdf:about=""><dc:format>image/svg+xml</dc:format><dc:type
           rdf:resource="http://purl.org/dc/dcmitype/StillImage" /><dc:title></dc:title></cc:Work></rdf:RDF></metadata><defs
     id="defs21" /><sodipodi:namedview
     pagecolor="#ffffff"
     bordercolor="#666666"
     borderopacity="1"
     objecttolerance="10"
     gridtolerance="10"
     guidetolerance="10"
     inkscape:pageopacity="0"
     inkscape:pageshadow="2"
     inkscape:window-width="1358"
     inkscape:window-height="796"
     id="namedview19"
     showgrid="false"
     fit-margin-top="10"
     fit-margin-left="10"
     fit-margin-right="10"
     fit-margin-bottom="10"
     inkscape:zoom="0.944"
     inkscape:cx="75.220729"
     inkscape:cy="212.76436"
     inkscape:window-x="0"
     inkscape:window-y="0"
     inkscape:window-maximized="0"
     inkscape:current-layer="Layer_1" /><g
     id="g16"
     transform="translate(0,-329.082)"><path
       d="M 269.368,579 C 266.099,579 264,577.137 264,573.866 V 463 h -0.471 l -23.822,78.285 c -0.934,3.116 -2.882,4.715 -5.838,4.715 H 214.25 c -2.96,0 -4.905,-1.482 -5.839,-4.598 L 184.122,463 H 183 v 110.866 c 0,1.868 -0.22,3.27 -0.84,3.969 -0.624,0.699 -1.855,1.165 -3.877,1.165 H 159.132 C 155.862,579 154,577.137 154,573.866 V 433.502 c 0,-3.269 1.863,-4.502 5.132,-4.502 h 34.799 c 2.179,0 3.656,0.734 4.437,2.913 L 223.125,514 h 1.402 l 24.99,-82.087 c 0.466,-2.179 1.945,-2.913 4.437,-2.913 H 270 v -28.177 l -260,23.63 v 203.521 l 260,33.541 V 579 Z"
       id="path2"
       inkscape:connector-curvature="0"
       style="fill:#cb97cb" /><path
       d="m 480.964,578.77 h -76.371 c -3.27,0 -4.905,-1.633 -4.905,-4.903 V 433.502 c 0,-3.269 1.635,-4.904 4.905,-4.904 h 76.371 c 3.113,0 4.671,1.635 4.671,4.904 v 15.882 c 0,3.269 -1.558,4.905 -4.671,4.905 h -48.812 c -1.869,0 -2.803,0.857 -2.803,2.569 v 30.362 c 0,1.715 0.934,2.569 2.803,2.569 h 39.938 c 3.269,0 4.904,1.634 4.904,4.905 v 15.882 c 0,3.269 -1.635,4.903 -4.904,4.903 h -39.938 c -1.869,0 -2.803,0.857 -2.803,2.57 v 32.463 c 0,1.715 0.934,2.567 2.803,2.567 h 48.812 c 3.113,0 4.671,1.637 4.671,4.906 v 15.881 c 0,3.271 -1.558,4.904 -4.671,4.904 z"
       id="path4"
       inkscape:connector-curvature="0"
       style="fill:#922793" /><path
       d="m 640.007,578.77 h -76.838 c -3.269,0 -4.903,-1.633 -4.903,-4.903 V 433.502 c 0,-3.269 1.635,-4.904 4.903,-4.904 h 19.854 c 3.27,0 4.904,1.635 4.904,4.904 v 116.775 c 0,1.716 0.933,2.568 2.804,2.568 h 49.276 c 3.114,0 4.672,1.717 4.672,5.14 v 15.881 c 0,3.271 -1.558,4.904 -4.672,4.904 z"
       id="path6"
       inkscape:connector-curvature="0"
       style="fill:#922793" /><path
       d="m 734.594,578.77 h -19.852 c -3.269,0 -4.903,-1.633 -4.903,-4.903 V 433.502 c 0,-3.269 1.635,-4.904 4.903,-4.904 h 56.986 c 12.145,0 21.563,3.31 28.261,9.926 6.692,6.62 10.042,15.998 10.042,28.143 v 22.421 c 0,12.144 -3.35,21.527 -10.042,28.143 -6.697,6.619 -16.116,9.925 -28.261,9.925 h -29.427 c -1.869,0 -2.802,0.858 -2.802,2.569 v 44.142 c 10e-4,3.27 -1.636,4.903 -4.905,4.903 z m 7.473,-77.539 h 24.758 c 4.98,0 8.483,-1.05 10.509,-3.152 2.022,-2.103 3.036,-5.565 3.036,-10.394 v -19.618 c 0,-4.981 -1.014,-8.524 -3.036,-10.627 -2.025,-2.102 -5.528,-3.152 -10.509,-3.152 h -24.758 c -1.715,0 -2.567,0.857 -2.567,2.569 v 41.805 c 0,1.716 0.853,2.569 2.567,2.569 z"
       id="path8"
       inkscape:connector-curvature="0"
       style="fill:#922793" /><path
       d="m 895.977,578.77 h -22.421 c -2.802,0 -3.736,-1.633 -2.802,-4.903 l 36.901,-140.364 c 1.087,-3.269 3.423,-4.904 7.006,-4.904 h 31.063 c 3.89,0 6.226,1.635 7.006,4.904 l 36.901,140.364 c 0.935,3.271 0,4.903 -2.802,4.903 h -22.422 c -1.715,0 -2.882,-0.351 -3.503,-1.05 -0.624,-0.699 -1.092,-1.985 -1.4,-3.854 l -6.541,-25.69 h -45.542 l -6.538,25.69 c -0.314,1.868 -0.818,3.154 -1.52,3.854 -0.699,0.699 -1.832,1.05 -3.386,1.05 z m 33.866,-121.912 -16.816,67.496 h 34.565 l -16.816,-67.496 z"
       id="path10"
       inkscape:connector-curvature="0"
       style="fill:#922793" /><path
       d="m 46,362.71 v 203.521 l 261,33.541 v -260.69 z m 247,211.156 c 0,3.271 -1.211,5.134 -4.481,5.134 H 269.368 C 266.099,579 264,577.137 264,573.866 V 463 h -0.471 l -23.822,78.285 c -0.934,3.116 -2.882,4.715 -5.838,4.715 H 214.25 c -2.96,0 -4.905,-1.482 -5.839,-4.598 L 184.122,463 H 183 v 110.866 c 0,1.868 -0.22,3.27 -0.84,3.969 -0.624,0.699 -1.855,1.165 -3.877,1.165 H 159.132 C 155.862,579 154,577.137 154,573.866 V 433.502 c 0,-3.269 1.863,-4.502 5.132,-4.502 h 34.799 c 2.179,0 3.656,0.734 4.437,2.913 L 223.125,514 h 1.402 l 24.99,-82.087 c 0.466,-2.179 1.945,-2.913 4.437,-2.913 h 34.565 c 3.27,0 4.481,1.233 4.481,4.502 z"
       id="path12"
       inkscape:connector-curvature="0"
       style="fill:#a852a9" /><path
       d="m 85,401.586 v 203.521 l 262,33.54 v -260.69 z m 208,172.28 c 0,3.271 -1.211,5.134 -4.481,5.134 H 269.368 C 266.099,579 264,577.137 264,573.866 V 463 h -0.471 l -23.822,78.285 c -0.934,3.116 -2.882,4.715 -5.838,4.715 H 214.25 c -2.96,0 -4.905,-1.482 -5.839,-4.598 L 184.122,463 H 183 v 110.866 c 0,1.868 -0.22,3.27 -0.84,3.969 -0.624,0.699 -1.855,1.165 -3.877,1.165 H 159.132 C 155.862,579 154,577.137 154,573.866 V 433.502 c 0,-3.269 1.863,-4.502 5.132,-4.502 h 34.799 c 2.179,0 3.656,0.734 4.437,2.913 L 223.125,514 h 1.402 l 24.99,-82.087 c 0.466,-2.179 1.945,-2.913 4.437,-2.913 h 34.565 c 3.27,0 4.481,1.233 4.481,4.502 z"
       id="path14"
       inkscape:connector-curvature="0"
       style="fill:#922793" /></g></svg>